<svg viewBox="0 0 65 65" xmlns="http://www.w3.org/2000/svg"><g stroke="#fff" stroke-miterlimit="10"><path d="m.5 44.54v8.46a4.19 4.19 0 0 0 1.24 3c2.62 2.54 6.07 4 9.47 5.16 3.72 1.31 7.49 2.79 11.44 3.25s8.31-.47 10.52-3.93a7.37 7.37 0 0 0 .43-.78 14.87 14.87 0 0 1 9-7.56c7.73-2.54 12.51-1 18.12-2.33a8.52 8.52 0 0 0 2.72-1.21 2.05 2.05 0 0 0 .94-1.73v-6.08z" fill="#bf0a0a"/><path d="m28 30.46c-.83.05-4 .13-5 .19-11.24.69-17.56 5.54-17.56 5.54s-8.1 5.89-3.54 11.09c4.25 4.83 9.1 6.93 14.1 8.32s11.24 2.08 14.05.69a8.53 8.53 0 0 0 3.86-3.81s1.76-5.2 6.68-7.28a23.88 23.88 0 0 1 8.41-2.08s10.53 0 13.34-.69a2.93 2.93 0 0 0 1.92-1.22 3 3 0 0 0 .1-2.21 4.8 4.8 0 0 0 -.29-.83 8.55 8.55 0 0 0 -3.4-3.45 28 28 0 0 0 -6.09-2.72c-6.68-2.2-15-2.13-18.62-2z" fill="#f00"/><ellipse cx="22.98" cy="49.01" fill="#bf0a0a" rx="4.57" ry="2.77"/><path d="m41.76 4.85a15.18 15.18 0 0 0 -21.27 0 14.71 14.71 0 0 0 0 21l9.85 9.72a1.14 1.14 0 0 0 1.57 0l9.85-9.72a14.69 14.69 0 0 0 0-21zm-9.52 14.82a4.86 4.86 0 0 1 -5.88-5.8 4.81 4.81 0 0 1 3.64-3.6 4.87 4.87 0 0 1 5.88 5.81 4.81 4.81 0 0 1 -3.64 3.59z" fill="#212126"/></g></svg>